<?xml version="1.0" encoding="utf-8"?>
<!-- Generator: Adobe Illustrator 24.1.0, SVG Export Plug-In . SVG Version: 6.00 Build 0)  -->
<svg version="1.1" id="Layer_1" focusable="false" xmlns="http://www.w3.org/2000/svg" xmlns:xlink="http://www.w3.org/1999/xlink"
	 x="0px" y="0px" viewBox="0 0 512 512" style="enable-background:new 0 0 512 512;" xml:space="preserve">
<style type="text/css">
	.st0{fill:#FFFFFF;}
</style>
<path class="st0" d="M512,48v288c0,26.5-21.5,48-48,48h-48V176c0-44.1-35.9-80-80-80H128V48c0-26.5,21.5-48,48-48h288
	C490.5,0,512,21.5,512,48z M384,176v288c0,26.5-21.5,48-48,48H48c-26.5,0-48-21.5-48-48V176c0-26.5,21.5-48,48-48h288
	C362.5,128,384,149.5,384,176z M316,204c0-6.6-5.4-12-12-12H76c-6.6,0-12,5.4-12,12v52h252V204z"/>
</svg>
